<?xml version="1.0" standalone="no"?>
<!DOCTYPE svg PUBLIC "-//W3C//DTD SVG 20010904//EN"
 "http://www.w3.org/TR/2001/REC-SVG-20010904/DTD/svg10.dtd">
<svg version="1.0" xmlns="http://www.w3.org/2000/svg"
 width="764.000000pt" height="764.000000pt" viewBox="0 0 764.000000 764.000000"
 preserveAspectRatio="xMidYMid meet">
<metadata>
Created by potrace 1.11, written by Peter Selinger 2001-2013
</metadata>
<g transform="translate(0.000000,764.000000) scale(0.100000,-0.100000)"
fill="#000000" stroke="none">
<path d="M3337 7199 c-169 -12 -248 -35 -340 -101 -75 -54 -516 -478 -1106
-1064 -532 -528 -712 -719 -754 -799 -31 -61 -35 -160 -9 -219 30 -66 174
-222 237 -254 l50 -26 600 -8 c401 -6 608 -5 623 2 44 19 52 63 52 277 0 227
-8 260 -67 278 -29 8 -33 13 -33 46 l0 36 -121 6 c-66 3 -123 8 -126 11 -6 5
461 486 480 494 7 4 9 -740 7 -3699 l-1 -1616 40 -7 c34 -5 43 -12 55 -40 8
-19 23 -39 34 -45 27 -14 506 -15 532 -1 46 25 45 -14 50 1318 l5 1264 23 18
c12 10 48 22 80 26 31 5 446 8 922 8 810 1 869 0 930 -17 83 -24 189 -79 234
-123 76 -74 126 -226 126 -387 0 -313 -179 -548 -475 -623 -63 -15 -141 -18
-747 -21 l-678 -4 0 -289 0 -289 37 -3 c33 -3 40 -8 55 -40 10 -20 27 -42 38
-48 14 -7 245 -10 763 -8 l742 4 94 27 c281 82 499 247 666 505 123 191 184
423 185 695 0 416 -98 678 -346 924 -227 226 -414 324 -719 380 -79 15 -207
17 -1012 20 l-923 4 0 1349 c0 830 4 1358 10 1374 20 52 -11 51 950 56 492 3
901 9 909 14 32 21 41 73 41 253 0 204 -9 240 -67 257 -28 9 -32 14 -35 50
l-3 41 -950 1 c-522 1 -999 -2 -1058 -7z"/>
<path d="M3770 5760 l0 -220 40 0 c36 0 41 -3 54 -34 8 -19 23 -39 34 -45 29
-15 1345 -15 1374 0 37 20 48 69 48 209 0 152 -12 195 -60 213 -27 10 -30 16
-30 54 l0 43 -730 0 -730 0 0 -220z"/>
</g>
</svg>
